# xmcd
#
# Track frame offsets:
# 150
# 14186
# 30489
# 43607
# 56941
# 70464
# 88144
# 106175
# 120319
# 136460
# 149173
# 165584
# 181078
# 194115
#
# Disc length: 2783 seconds
#
#
# Revision: 0
# Processed by: cddbd v1.5.2PL0 Copyright (c) Steve Scherf et al.
# Submitted via: FreeRIP 2.942 
#
DISCID=d40add0e
DTITLE=Os Grandes Sucessos - João Mineiro and Marciano
DYEAR=1900
DGENRE=Blues
TTITLE0=Ainda Ontem Chorei de Saudade
TTITLE1=Se Eu Não Puder te Esquecer
TTITLE2=Esta Noite como Lembrança
TTITLE3=Crises de Amor
TTITLE4=Aline
TTITLE5=Romaria
TTITLE6=Milagre da Flexa
TTITLE7=A Bailarina
TTITLE8=Não se Bate em quem se Ama
TTITLE9=Filho de Jesus
TTITLE10=Seu Amor Ainda é Tudo
TTITLE11=As Paredes Azuis
TTITLE12=Amor e Amizade
TTITLE13=Chuvas de Maio (Los Aquaceros de Mayo)
EXTD=Renan - I Wanna Hear Heartbeart - BBB 1985
EXTT0=
EXTT1=
EXTT2=
EXTT3=
EXTT4=
EXTT5=
EXTT6=
EXTT7=
EXTT8=
EXTT9=
EXTT10=
EXTT11=
EXTT12=
EXTT13=
PLAYORDER=
